<svg width="32" height="32" viewBox="0 0 32 32" fill="none" xmlns="http://www.w3.org/2000/svg">
<path d="M21.6648 18.3353C21.4088 16.9913 20.8328 15.6153 20.0008 14.3673L18.7208 15.6473C18.5608 15.8073 18.3048 15.9673 18.0488 16.0633C18.5928 16.9273 18.9768 17.8553 19.1688 18.8153C19.3288 19.6153 19.4888 20.3513 19.7448 21.0553C19.8728 21.4393 19.6488 21.8553 19.2968 21.9833C19.2008 22.0153 19.1368 22.0153 19.0728 22.0153C18.7848 22.0153 18.4968 21.7913 18.3688 21.5033C18.1128 20.7673 17.9208 19.9673 17.7288 19.0713C17.4728 17.7273 16.7368 16.4153 15.6168 15.3273C14.4968 14.2073 13.1528 13.4393 11.8088 13.2153C10.9768 13.0553 10.1768 12.8313 9.44078 12.5753C9.05678 12.4473 8.86478 12.0313 8.99278 11.6473C9.12078 11.2633 9.53678 11.0713 9.92078 11.1993C10.6248 11.4233 11.3928 11.6153 12.1608 11.7753C13.4088 12.0313 14.6248 12.6073 15.7128 13.4393L16.5768 10.9433C15.3288 10.1113 13.9528 9.5353 12.6088 9.2793C9.72878 8.7033 7.00878 7.4553 4.86478 5.4713C4.57678 5.2153 4.16078 5.2153 3.90478 5.4713L0.992781 8.3193C0.736781 8.5753 0.736781 8.9913 0.992781 9.2793C2.94478 11.4553 4.19278 14.1433 4.80078 17.0233C5.18478 19.0393 6.30478 21.1193 8.06478 22.8473C9.82478 24.6073 11.8728 25.6953 13.8888 26.0473C16.7688 26.6233 19.4888 27.8393 21.6328 29.8553C21.9208 30.1113 22.3368 30.1113 22.5928 29.8553L25.4728 26.9753C25.7288 26.7193 25.7288 26.3033 25.4728 26.0153C23.4568 23.9033 22.2088 21.2153 21.6648 18.3353ZM10.4648 14.9433C10.7528 14.6553 11.2008 14.6553 11.5208 14.9433L15.9688 19.3913C16.2568 19.6793 16.2568 20.1273 15.9688 20.4473C15.8408 20.5753 15.6488 20.6713 15.4568 20.6713C15.2968 20.6713 15.0728 20.5753 14.9448 20.4473L10.4648 15.9993C10.1768 15.7113 10.1768 15.2313 10.4648 14.9433ZM17.4728 23.7433C17.3768 24.0313 17.0888 24.2553 16.7688 24.2553C16.6728 24.2553 16.6088 24.2553 16.5448 24.2233C15.8408 23.9993 15.0728 23.8073 14.3048 23.6473C12.7048 23.3273 11.1048 22.4313 9.79278 21.1193C8.44878 19.7753 7.58478 18.2073 7.26478 16.5753C7.10478 15.8393 6.94478 15.0393 6.68878 14.3353C6.56078 13.9513 6.78478 13.5353 7.13678 13.4073C7.48878 13.2793 7.93678 13.5033 8.06478 13.8553C8.32078 14.5913 8.51278 15.4553 8.70478 16.2233C8.96078 17.5673 9.69678 18.8793 10.8168 20.0313C11.9368 21.1513 13.2808 21.9193 14.5608 22.1433C15.3928 22.3033 16.2248 22.5273 16.9928 22.7833C17.3768 22.9433 17.5688 23.3593 17.4728 23.7433Z" fill="white"/>
<path d="M17.2163 8.76792H18.8483L16.9603 14.1439C16.8643 14.3679 16.9603 14.5599 17.1203 14.6559C17.2163 14.6879 17.2803 14.7519 17.3443 14.7519C17.4723 14.7519 17.5683 14.7199 17.6323 14.6239L25.7283 6.46392C25.8563 6.33592 25.8883 6.17592 25.8243 6.01592C25.7283 5.85592 25.6003 5.75992 25.4403 5.75992H23.3283L25.2483 2.55992C25.3443 2.43192 25.3443 2.27192 25.2483 2.14392C25.1523 2.01592 25.0243 1.91992 24.8643 1.91992H19.5523C19.3923 1.91992 19.2323 2.04792 19.1363 2.20792L16.8003 8.28792C16.7683 8.41592 16.7683 8.57592 16.8323 8.70392C16.9283 8.73592 17.0883 8.76792 17.2163 8.76792Z" fill="white"/>
<path d="M31.1681 13.0233C31.1361 12.8953 31.0081 12.7993 30.8481 12.7993H29.0881L30.6881 10.1753C30.7841 10.0473 30.7841 9.91931 30.6881 9.85531C30.5921 9.75931 30.5281 9.69531 30.4001 9.69531H26.0481C25.9201 9.69531 25.7601 9.79131 25.7281 9.91931L23.8081 14.8793C23.7761 15.0073 23.7761 15.1353 23.8401 15.1993C23.9361 15.2953 24.0001 15.3593 24.1281 15.3593H25.4721L23.9361 19.7433C23.9041 19.9033 23.9361 20.0633 24.0641 20.1593C24.0961 20.1913 24.1921 20.1913 24.2241 20.1913C24.3201 20.1913 24.3841 20.1593 24.4801 20.0633L31.1041 13.4073C31.2321 13.3113 31.2321 13.1833 31.1681 13.0233Z" fill="white"/>
</svg>
