<svg width="70" height="70" viewBox="0 0 70 70" fill="none" xmlns="http://www.w3.org/2000/svg">
<path d="M60.2883 60.1562C60.1276 60.403 59.8962 60.5955 59.6243 60.7087C59.3524 60.8219 59.0527 60.8504 58.7644 60.7906L50.8602 59.1281L50.0436 67.2291C50.0141 67.5233 49.8957 67.8016 49.7043 68.0269C49.5128 68.2523 49.2573 68.414 48.9717 68.4906C48.8483 68.5254 48.7207 68.5426 48.5925 68.5416C48.3625 68.5414 48.1358 68.4872 47.9306 68.3834C47.7255 68.2795 47.5476 68.1289 47.4113 67.9436L37.0498 53.6958L39.405 55.1905C39.7263 55.3941 40.1145 55.4638 40.4865 55.3848C40.8586 55.3058 41.1849 55.0842 41.3956 54.7676L44.3342 50.3416L49.4529 51.0416C49.826 51.093 50.2045 50.9979 50.509 50.7763C50.8135 50.5547 51.0204 50.2238 51.0863 49.8531L51.655 46.6885L60.2446 58.501C60.4168 58.7408 60.513 59.0267 60.5208 59.3219C60.5286 59.617 60.4476 59.9076 60.2883 60.1562Z" fill="#48A6F0"/>
<path d="M33.0031 53.6666L22.5177 67.8416C22.3423 68.0802 22.0983 68.2596 21.8183 68.3561C21.5383 68.4525 21.2356 68.4613 20.9504 68.3813C20.6653 68.3013 20.4113 68.1363 20.2223 67.9083C20.0334 67.6803 19.9184 67.4001 19.8927 67.1051L19.1416 58.9967L11.2302 60.5937C10.9411 60.6525 10.6409 60.6223 10.3693 60.5071C10.0977 60.392 9.86736 60.1972 9.70866 59.9485C9.54996 59.6998 9.47035 59.4088 9.48033 59.114C9.49031 58.8191 9.5894 58.5342 9.76455 58.2968L18.3468 46.6812L18.9156 49.853C18.9824 50.2233 19.1896 50.5536 19.4938 50.775C19.7981 50.9964 20.176 51.0919 20.5489 51.0416L25.6677 50.3416L28.6062 54.7676C28.8175 55.0836 29.1438 55.3045 29.5156 55.3835C29.8874 55.4625 30.2753 55.3933 30.5968 55.1905L33.0031 53.6666Z" fill="#48A6F0"/>
<path d="M21.5393 47.9572L26.1768 47.3227C26.4489 47.2872 26.7256 47.3285 26.9756 47.4419C27.2255 47.5553 27.4388 47.7363 27.5913 47.9645L30.2455 51.9603L34.2195 49.4374C34.4529 49.2897 34.7234 49.2113 34.9997 49.2113C35.2759 49.2113 35.5465 49.2897 35.7799 49.4374L39.7538 51.9603L42.408 47.9645C42.5605 47.7363 42.7738 47.5553 43.0238 47.4419C43.2737 47.3285 43.5504 47.2872 43.8226 47.3227L48.2122 47.9207H48.2195L48.4601 47.9571L48.4893 47.7967L48.657 46.878L48.6861 46.7103L49.3205 43.1518C49.368 42.8872 49.4879 42.6408 49.6667 42.4401C49.8456 42.2393 50.0766 42.092 50.334 42.0145L54.8622 40.6218L53.7465 35.8311C53.6865 35.5754 53.6968 35.3082 53.7764 35.0578C53.856 34.8074 54.0019 34.5833 54.1986 34.4092L57.8226 31.2082L54.9205 27.2925C54.7631 27.0829 54.6658 26.8344 54.6388 26.5737C54.6118 26.3129 54.6563 26.0497 54.7674 25.8123L56.8163 21.3572L52.6528 19.0165C52.4202 18.8873 52.2277 18.6964 52.0965 18.4648C51.9653 18.2333 51.9004 17.97 51.909 17.704L52.033 12.7968L47.3445 12.4176C47.0748 12.3947 46.8168 12.2973 46.5992 12.1364C46.3816 11.9755 46.213 11.7573 46.1122 11.5061L44.3111 7.00717L39.9143 8.61869C39.6541 8.71448 39.3722 8.73449 39.1011 8.6764C38.83 8.61831 38.581 8.4845 38.383 8.29051L34.9997 4.95825L31.6163 8.29051C31.4181 8.48417 31.1691 8.61776 30.8981 8.67583C30.6272 8.73391 30.3453 8.71409 30.0851 8.61868L25.6882 7.00717L23.8872 11.5061C23.7863 11.7573 23.6177 11.9755 23.4001 12.1364C23.1825 12.2973 22.9245 12.3947 22.6549 12.4176L17.9663 12.7968L18.0903 17.704C18.0989 17.97 18.0341 18.2333 17.9029 18.4648C17.7717 18.6964 17.5792 18.8873 17.3465 19.0165L13.183 21.3572L15.232 25.8123C15.3431 26.0497 15.3875 26.3129 15.3606 26.5736C15.3336 26.8343 15.2362 27.0828 15.0788 27.2925L12.1768 31.2083L15.8007 34.4092C15.9974 34.5833 16.1433 34.8074 16.2229 35.0578C16.3025 35.3082 16.3129 35.5754 16.2528 35.8311L15.1372 40.6218L19.6653 42.0145C19.9228 42.092 20.1537 42.2394 20.3326 42.4401C20.5115 42.6409 20.6313 42.8872 20.6788 43.1519L21.5393 47.9572ZM34.9997 42.5977C32.199 42.5977 29.4612 41.7672 27.1326 40.2113C24.8039 38.6553 22.9889 36.4438 21.9171 33.8563C20.8454 31.2688 20.565 28.4216 21.1114 25.6747C21.6577 22.9279 23.0064 20.4047 24.9868 18.4244C26.9671 16.444 29.4903 15.0954 32.2372 14.549C34.984 14.0026 37.8312 14.283 40.4187 15.3548C43.0061 16.4266 45.2177 18.2416 46.7737 20.5703C48.3296 22.8989 49.1601 25.6367 49.1601 28.4374C49.1563 32.1918 47.6632 35.7913 45.0084 38.4461C42.3536 41.1008 38.7541 42.594 34.9997 42.5977Z" fill="#48A6F0"/>
<path d="M45.388 32.7402C47.7644 27.0031 45.04 20.4259 39.303 18.0496C33.5659 15.6732 26.9887 18.3976 24.6123 24.1346C22.236 29.8717 24.9604 36.4489 30.6974 38.8252C36.4345 41.2016 43.0117 38.4772 45.388 32.7402Z" fill="#48A6F0"/>
</svg>
