<svg width="70" height="70" viewBox="0 0 70 70" fill="none" xmlns="http://www.w3.org/2000/svg">
<path d="M34.4859 4.19995C26.9674 4.19995 21.2069 11.5479 21.2069 20.3C21.2069 29.052 26.9674 36.4 34.4859 36.4C42.0047 36.4 47.7868 29.052 47.7868 20.3C47.7868 11.5479 42.0047 4.19995 34.4859 4.19995ZM28.7762 37.8C17.8815 39.2218 9.07886 44.1575 7.05292 51.2093C6.98236 51.458 6.98236 51.7263 7.05292 51.975C8.25258 56.1507 11.911 59.5683 16.8535 61.9718C21.7961 64.3754 28.0988 65.8 34.9891 65.8C41.8794 65.8 48.2038 64.3754 53.1465 61.9718C58.089 59.5683 61.7474 56.1507 62.947 51.975C63.0176 51.7263 63.0176 51.458 62.947 51.2093C60.9213 44.1575 52.1188 39.2218 41.2238 37.8C40.7738 37.7426 40.2999 37.9199 39.9988 38.2593L34.9891 43.9905L30.0012 38.2593C29.7001 37.9199 29.2262 37.7423 28.7762 37.8ZM45.446 47.075H48.2461V51.275H52.4464V54.075H48.2461V58.275H45.446V54.075H41.2457V51.275H45.446V47.075Z" fill="#48A6F0"/>
</svg>
