<svg width="32" height="32" viewBox="0 0 32 32" fill="none" xmlns="http://www.w3.org/2000/svg">
<g clip-path="url(#clip0_20_867)">
<path d="M29.5021 4.65796C28.7125 3.86396 27.7733 3.23438 26.7389 2.80565C25.7044 2.37691 24.5952 2.15753 23.4755 2.16018C22.357 2.15772 21.2492 2.37723 20.2163 2.80599C19.1833 3.23474 18.2456 3.86422 17.4577 4.65796L15.9999 6.10685L14.551 4.65796C13.7631 3.86422 12.8254 3.23474 11.7924 2.80599C10.7595 2.37723 9.65167 2.15772 8.53324 2.16018C6.84681 2.15883 5.19786 2.65773 3.79504 3.59376C2.39222 4.52978 1.29856 5.86088 0.652428 7.41863C0.00630018 8.97638 -0.163258 10.6908 0.165207 12.3449C0.493672 13.9991 1.3054 15.5186 2.49769 16.7113L15.3688 29.5824C15.4514 29.6657 15.5497 29.7318 15.6581 29.777C15.7664 29.8221 15.8826 29.8453 15.9999 29.8453C16.1173 29.8453 16.2334 29.8221 16.3418 29.777C16.4501 29.7318 16.5484 29.6657 16.631 29.5824L29.5021 16.7113C30.2944 15.9204 30.923 14.9809 31.3519 13.9468C31.7808 12.9127 32.0015 11.8042 32.0015 10.6846C32.0015 9.56509 31.7808 8.45655 31.3519 7.42243C30.923 6.3883 30.2944 5.44889 29.5021 4.65796ZM20.4444 16.8891H16.8888V20.4446C16.8888 20.6804 16.7951 20.9065 16.6284 21.0732C16.4618 21.2399 16.2357 21.3335 15.9999 21.3335C15.7642 21.3335 15.5381 21.2399 15.3714 21.0732C15.2047 20.9065 15.111 20.6804 15.111 20.4446V16.8891H11.5555C11.3197 16.8891 11.0936 16.7954 10.9269 16.6287C10.7602 16.462 10.6666 16.2359 10.6666 16.0002C10.6666 15.7644 10.7602 15.5383 10.9269 15.3716C11.0936 15.2049 11.3197 15.1113 11.5555 15.1113H15.111V11.5557C15.111 11.32 15.2047 11.0939 15.3714 10.9272C15.5381 10.7605 15.7642 10.6668 15.9999 10.6668C16.2357 10.6668 16.4618 10.7605 16.6284 10.9272C16.7951 11.0939 16.8888 11.32 16.8888 11.5557V15.1113H20.4444C20.6801 15.1113 20.9062 15.2049 21.0729 15.3716C21.2396 15.5383 21.3332 15.7644 21.3332 16.0002C21.3332 16.2359 21.2396 16.462 21.0729 16.6287C20.9062 16.7954 20.6801 16.8891 20.4444 16.8891Z" fill="#122D42"/>
</g>
<defs>
<clipPath id="clip0_20_867">
<rect width="32" height="32" fill="white"/>
</clipPath>
</defs>
</svg>
