<svg width="32" height="32" viewBox="0 0 32 32" fill="none" xmlns="http://www.w3.org/2000/svg">
<path d="M30.0461 5.55529C29.9834 4.61705 29.5831 3.71433 28.9469 3.07849L28.9223 3.05385C27.6756 1.80745 25.2749 1.42953 23.8231 2.88105C23.8231 2.88105 9.95524 16.8321 9.74788 17.1284C9.64068 17.2817 8.77124 20.1012 8.57892 20.4225C8.56036 20.4519 2.41348 26.634 2.35908 26.6871C1.625 27.4212 1.97636 28.835 2.57124 29.4302C2.92708 29.7863 3.57636 30.0551 4.19876 30.0551C4.617 30.0551 5.0234 29.9338 5.321 29.6362C5.3674 29.5886 9.9866 24.8366 11.3124 23.6455C11.426 23.5434 14.728 22.3502 14.8701 22.2506C15.1888 22.0276 29.1149 8.17321 29.1149 8.17321C29.7834 7.50473 30.114 6.57513 30.0461 5.55529ZM12.3815 18.1265C12.2791 18.1265 12.1767 18.0874 12.0986 18.0094L11.3626 17.2734C11.5204 17.113 11.7085 16.9223 11.9242 16.7038L12.6644 17.4436C12.8205 17.5998 12.8205 17.8529 12.6644 18.0094C12.5863 18.0874 12.4839 18.1265 12.3815 18.1265ZM13.6208 14.9879C13.8029 14.8042 13.9908 14.6145 14.1837 14.4196L15.4845 15.7204C15.6407 15.8766 15.6407 16.1297 15.4845 16.2862C15.4064 16.3642 15.304 16.4033 15.2016 16.4033C15.0992 16.4033 14.9968 16.3642 14.9188 16.2862L13.6208 14.9879ZM24.8848 6.31977C25.041 6.47593 25.041 6.72905 24.8848 6.88553C24.8068 6.96361 24.7044 7.00265 24.602 7.00265C24.4996 7.00265 24.3972 6.96361 24.3191 6.88553L22.9805 5.54697C23.1831 5.34281 23.3712 5.15337 23.544 4.97929L24.8848 6.31977ZM21.9863 8.12169C22.1424 8.27785 22.1424 8.53129 21.9863 8.68745C21.9082 8.76553 21.8058 8.80457 21.7034 8.80457C21.601 8.80457 21.4986 8.76553 21.4205 8.68745L20.6397 7.90633C20.8314 7.71305 21.0192 7.52361 21.2032 7.33833L21.9863 8.12169ZM20.1847 11.0202C20.3408 11.1764 20.3408 11.4295 20.1847 11.586C20.1066 11.6641 20.0042 11.7031 19.9018 11.7031C19.7994 11.7031 19.697 11.6641 19.6189 11.586L18.2992 10.2663C18.4877 10.0762 18.6756 9.88681 18.8624 9.69833L20.1847 11.0202ZM17.2861 12.8218C17.4423 12.978 17.4423 13.2311 17.2861 13.3876C17.208 13.4657 17.1056 13.5047 17.0032 13.5047C16.9008 13.5047 16.7984 13.4657 16.7204 13.3876L15.9594 12.6266C16.1456 12.4388 16.3332 12.2494 16.5226 12.0586L17.2861 12.8218ZM25.6512 7.73001C25.8074 7.57385 26.0605 7.57385 26.217 7.73001C26.3732 7.88617 26.3732 8.13929 26.217 8.29577L14.3879 20.1246C14.3098 20.2026 14.2074 20.2417 14.105 20.2417C14.0026 20.2417 13.9002 20.2026 13.8221 20.1246C13.666 19.9684 13.666 19.7153 13.8221 19.5588L25.6512 7.73001ZM4.40964 28.7377C4.24484 28.875 3.89028 28.8746 3.47652 28.5252C3.12516 28.2286 3.14948 27.707 3.25764 27.5988C3.41668 27.4442 6.47972 24.4676 8.29028 22.617L9.38564 23.7124C7.53476 25.5226 4.57412 28.6004 4.40964 28.7377Z" fill="#F7F7F7"/>
</svg>
