<svg width="27" height="43" viewBox="0 0 27 43" fill="none" xmlns="http://www.w3.org/2000/svg">
<path d="M19.3684 18.5476C18.744 18.5476 18.1196 18.3945 17.5622 18.1046C15.7926 17.1851 15.0186 15.0955 15.691 13.271C15.7264 12.1292 15.9208 10.5531 16.5535 8.88497C17.269 7.00326 18.5187 5.00564 20.7706 3.27874C21.3276 2.85241 21.4336 2.05517 21.0071 1.49801C20.5807 0.941325 19.7837 0.835101 19.2264 1.26175C16.5695 3.29255 15.027 5.73365 14.178 7.98532C13.3252 10.2397 13.1446 12.304 13.1437 13.684C13.144 14.2459 13.1743 14.694 13.2039 14.9988L1.22146 38.0522C0.721618 39.0144 1.0965 40.1994 2.05808 40.6993C3.02013 41.1994 4.20543 40.8253 4.70559 39.863L10.6224 28.4793C10.7496 28.8985 11.0181 29.2774 11.4127 29.5373L16.5395 32.9163L17.7139 39.4009C17.8844 40.3411 18.7031 40.9998 19.6261 41C19.7412 41 19.8574 40.9898 19.9746 40.9686C21.0314 40.7769 21.7333 39.7648 21.5419 38.7078L20.219 31.4038C20.1234 30.878 19.8214 30.4207 19.3754 30.1262L16.1318 27.9887L20.3798 19.8153C20.6866 20.0231 21.0241 20.2716 21.3458 20.5481C21.7766 20.915 22.1739 21.3313 22.4325 21.7235C22.6967 22.1198 22.8065 22.4622 22.8044 22.7273C22.8028 22.8934 22.7715 23.05 22.6651 23.2585C22.507 23.5659 22.1389 23.9995 21.3862 24.483C20.6369 24.966 19.5198 25.4866 17.9655 25.9904C17.2979 26.2067 16.9328 26.9234 17.1492 27.591C17.3236 28.1279 17.8215 28.4692 18.3571 28.4692C18.487 28.4692 18.6194 28.4492 18.7498 28.4068C21.0143 27.6684 22.5816 26.8736 23.6686 25.9492C24.2101 25.4862 24.631 24.9823 24.9178 24.433C25.2053 23.8856 25.3463 23.2926 25.345 22.7272C25.3417 21.731 24.9448 20.8788 24.4581 20.1846C23.7182 19.1405 22.7342 18.3602 21.9284 17.7962C21.8841 17.7656 21.8403 17.7359 21.7972 17.7065C21.1183 18.2424 20.2693 18.5476 19.3684 18.5476Z" fill="#48A6F0"/>
<path d="M23.178 16.0257C24.1792 14.0994 23.4293 11.7263 21.5031 10.7251C19.5769 9.72387 17.2037 10.4737 16.2025 12.4C15.2013 14.3262 15.9512 16.6993 17.8774 17.7005C19.8036 18.7018 22.1768 17.9519 23.178 16.0257Z" fill="#48A6F0"/>
</svg>
