<svg width="40" height="40" viewBox="0 0 40 40" fill="none" xmlns="http://www.w3.org/2000/svg">
<path d="M20.4381 23.2463C20.7858 22.9187 20.9853 22.4565 20.9853 21.9786V18.1265H18.7031V24.8818L20.4381 23.2463Z" fill="#48A6F0"/>
<path d="M18.4873 13.3118C18.4873 14.3425 19.1662 15.1811 20.0009 15.1811C20.8356 15.1811 21.5151 14.3425 21.5151 13.3118C21.5151 12.2814 20.8356 11.4429 20.0009 11.4429C19.1662 11.4429 18.4873 12.2814 18.4873 13.3118Z" fill="#48A6F0"/>
<path d="M21.4382 17.2198H23.8579C23.8437 16.6985 23.4157 16.2788 22.8909 16.2788H17.1111C16.5863 16.2788 16.1577 16.6985 16.1436 17.2198H18.2492H21.4382Z" fill="#48A6F0"/>
<path d="M22.8906 15.372C23.915 15.372 24.7474 16.1987 24.7621 17.2197H25.8546C26.2961 17.2197 26.6556 16.8605 26.6556 16.4187V10.3812C26.6556 9.93933 26.2962 9.58008 25.8546 9.58008H14.1468C13.7052 9.58008 13.3457 9.93928 13.3457 10.3812V16.4187C13.3457 16.8605 13.7052 17.2197 14.1468 17.2197H15.2387C15.2534 16.1987 16.0863 15.372 17.1108 15.372H18.3935C17.8982 14.8633 17.5801 14.1325 17.5801 13.3118C17.5801 11.7814 18.6657 10.5361 20.0004 10.5361C21.3351 10.5361 22.4213 11.7814 22.4213 13.3118C22.4213 14.1325 22.103 14.8633 21.6076 15.372H22.8906Z" fill="#48A6F0"/>
<path d="M5.55566 12.5641V22.1831C5.55566 23.8268 6.89566 25.1639 8.54269 25.1639H9.93052V10.8767C9.93052 10.4227 9.98515 9.79602 10.0132 9.58008H8.54269C6.89572 9.58008 5.55566 10.9186 5.55566 12.5641Z" fill="#48A6F0"/>
<path d="M10.8369 32.3853V37.4847C10.8369 37.9263 11.1964 38.2858 11.638 38.2858H13.9349V37.8986C13.9349 36.3407 13.3287 34.8765 12.2271 33.7755L10.8369 32.3853Z" fill="#48A6F0"/>
<path d="M25.21 31.5163V38.2858H28.3634C28.805 38.2858 29.1645 37.9266 29.1645 37.4847C29.1645 32.3028 29.1645 26.4545 29.1645 24.2739C28.3422 25.4352 25.21 27.1754 25.21 31.5163Z" fill="#48A6F0"/>
<path d="M20.0022 1.71436C14.9311 1.71436 10.8369 5.81258 10.8369 10.8767C10.8369 15.6381 10.8369 26.3512 10.8369 31.1028L12.8682 33.1344C14.141 34.4065 14.8417 36.0987 14.8417 37.8986V38.2858H17.7956V18.1264H15.6894H14.1469C13.2053 18.1264 12.4391 17.3602 12.4391 16.4186V10.3811C12.4391 9.43956 13.2053 8.67333 14.1469 8.67333H25.8546C26.7962 8.67333 27.5624 9.43956 27.5624 10.3811V16.4186C27.5624 17.3601 26.7962 18.1264 25.8546 18.1264H24.3115H21.8913V21.9785C21.8913 22.7049 21.5878 23.4076 21.0595 23.9062L18.7023 26.1276V38.2858H24.3033V31.5163C24.3033 26.5598 28.0214 24.5356 29.1646 22.9578V10.8767C29.1646 10.3073 29.1132 9.74681 29.0123 9.21053C28.2147 4.86607 24.4255 1.71436 20.0022 1.71436ZM19.9991 36.9609C19.698 36.9609 19.4534 36.7163 19.4534 36.4121C19.4534 36.1079 19.698 35.8632 19.9991 35.8632C20.3033 35.8632 20.5479 36.1078 20.5479 36.4121C20.5479 36.7163 20.3033 36.9609 19.9991 36.9609ZM19.9991 34.2428C19.698 34.2428 19.4534 33.9982 19.4534 33.694C19.4534 33.3898 19.698 33.1452 19.9991 33.1452C20.3033 33.1452 20.5479 33.3898 20.5479 33.694C20.5479 33.9982 20.3033 34.2428 19.9991 34.2428ZM19.9991 31.5248C19.698 31.5248 19.4534 31.2801 19.4534 30.976C19.4534 30.6717 19.698 30.4271 19.9991 30.4271C20.3033 30.4271 20.5479 30.6717 20.5479 30.976C20.5479 31.2801 20.3033 31.5248 19.9991 31.5248ZM19.9991 28.8067C19.698 28.8067 19.4534 28.5621 19.4534 28.2578C19.4534 27.9536 19.698 27.709 19.9991 27.709C20.3033 27.709 20.5479 27.9536 20.5479 28.2578C20.5479 28.5621 20.3033 28.8067 19.9991 28.8067Z" fill="#48A6F0"/>
<path d="M31.4597 9.58008H29.9893C29.9998 9.66202 30.0046 9.74591 30.0131 9.82854C30.0207 9.90139 30.0282 9.97374 30.0342 10.0472C30.0566 10.3214 30.0719 10.5976 30.0719 10.8768C30.0719 14.5266 30.0719 21.5019 30.0719 25.164H31.4597C33.1049 25.164 34.4438 23.8269 34.4438 22.1832V12.5641C34.4438 10.9186 33.1049 9.58008 31.4597 9.58008Z" fill="#48A6F0"/>
</svg>
