<svg width="32" height="32" viewBox="0 0 32 32" fill="none" xmlns="http://www.w3.org/2000/svg">
<g clip-path="url(#clip0_20_888)">
<path d="M28.2821 4.37024C28.2821 3.90264 28.6613 3.52344 29.1289 3.52344C29.5965 3.52344 29.9757 3.90264 29.9757 4.37024V6.07544L31.4521 5.22344C31.8557 4.99184 32.3713 5.13064 32.6029 5.53424C32.8345 5.93784 32.6957 6.45344 32.2921 6.68504L30.8165 7.53664L32.2953 8.39064C32.6989 8.62424 32.8365 9.14104 32.6029 9.54464C32.3693 9.94824 31.8525 10.0858 31.4489 9.85224L29.9757 9.00184V10.705C29.9757 11.1726 29.5965 11.5518 29.1289 11.5518C28.6613 11.5518 28.2821 11.1726 28.2821 10.705V8.99984L26.8057 9.85184C26.4021 10.0834 25.8865 9.94464 25.6549 9.54104C25.4233 9.13744 25.5621 8.62184 25.9657 8.39024L27.4413 7.53864L25.9625 6.68464C25.5589 6.45104 25.4213 5.93424 25.6549 5.53064C25.8885 5.12704 26.4053 4.98944 26.8089 5.22304L28.2821 6.07344V4.37024ZM31.3669 16.8282L18.1481 27.4202C18.2777 27.5694 18.4125 27.7138 18.5521 27.8534C20.0857 29.3874 22.2053 30.3358 24.5461 30.3358C26.8873 30.3358 29.0069 29.3874 30.5389 27.855C32.0729 26.3214 33.0213 24.2022 33.0213 21.861C33.0213 19.9762 32.4065 18.2354 31.3669 16.8282ZM17.7253 26.8934L30.9441 16.3014C30.8145 16.1522 30.6793 16.0074 30.5397 15.8678C29.0069 14.3346 26.8873 13.3862 24.5461 13.3862C22.2053 13.3862 20.0857 14.3346 18.5537 15.867C17.0197 17.4006 16.0713 19.5202 16.0713 21.861C16.0713 23.7462 16.6857 25.487 17.7253 26.8934ZM23.2473 12.8002C23.5925 11.4462 23.5205 10.0218 23.0633 8.72184C22.5985 7.39984 21.7337 6.20464 20.5065 5.34104C18.9361 4.23584 17.0541 3.87304 15.2893 4.17984C13.5257 4.48624 11.8781 5.46224 10.7729 7.03264L7.38646 11.8438L16.2189 18.0598C16.6761 17.061 17.3073 16.1582 18.0745 15.391C19.4437 14.0222 21.2417 13.0854 23.2473 12.8002ZM15.9549 18.7006L6.99726 12.3962L5.88766 13.9726L15.4653 20.713C15.5529 20.0146 15.7189 19.341 15.9549 18.7006ZM15.4009 21.4946L5.49886 14.5254L2.11326 19.335C1.00806 20.9062 0.645662 22.7878 0.952062 24.5526C1.25846 26.3162 2.23486 27.9646 3.80486 29.0694C5.37486 30.1746 7.25686 30.537 9.02166 30.2302C10.7853 29.9238 12.4333 28.9478 13.5389 27.3774L15.7177 24.2818C15.5065 23.5106 15.3937 22.699 15.3937 21.861C15.3937 21.7382 15.3961 21.6162 15.4009 21.4946Z" fill="white"/>
</g>
<defs>
<clipPath id="clip0_20_888">
<rect width="32" height="32" fill="white"/>
</clipPath>
</defs>
</svg>
