<svg width="70" height="70" viewBox="0 0 70 70" fill="none" xmlns="http://www.w3.org/2000/svg">
<path d="M35 4.375C28.6206 4.38253 22.5045 6.92009 17.9936 11.4311C13.4826 15.942 10.9451 22.058 10.9375 28.4375C10.9299 33.6508 12.6328 38.7226 15.785 42.875C15.785 42.875 16.4413 43.7391 16.5485 43.8638L35 65.625L53.4603 43.8528C53.5566 43.7369 54.215 42.875 54.215 42.875L54.2172 42.8684C57.3679 38.7179 59.07 33.6484 59.0625 28.4375C59.055 22.058 56.5174 15.942 52.0065 11.4311C47.4955 6.92009 41.3795 4.38253 35 4.375ZM35 37.1875C33.2694 37.1875 31.5777 36.6743 30.1388 35.7129C28.6999 34.7514 27.5783 33.3848 26.9161 31.786C26.2538 30.1871 26.0805 28.4278 26.4182 26.7305C26.7558 25.0331 27.5891 23.474 28.8128 22.2503C30.0366 21.0266 31.5957 20.1932 33.293 19.8556C34.9903 19.518 36.7497 19.6913 38.3485 20.3536C39.9474 21.0158 41.3139 22.1373 42.2754 23.5763C43.2368 25.0152 43.75 26.7069 43.75 28.4375C43.7471 30.7573 42.8243 32.9812 41.184 34.6215C39.5437 36.2618 37.3198 37.1846 35 37.1875Z" fill="#48A6F0"/>
</svg>
