<svg width="70" height="70" viewBox="0 0 70 70" fill="none" xmlns="http://www.w3.org/2000/svg">
<path d="M13.95 8.46113H12.4527V0.736816H13.9493L13.95 8.46113ZM3.2422 20.2631H66.758V58.3527C66.7545 61.2444 65.6046 64.0167 63.5603 66.0619C61.5161 68.107 58.7444 69.2583 55.8527 69.2631H14.1475C11.2558 69.2583 8.48407 68.107 6.43984 66.0619C4.39561 64.0167 3.24571 61.2444 3.2422 58.3527V20.2631ZM16.6874 44.7631C16.6874 48.3845 17.7612 51.9246 19.7731 54.9357C21.785 57.9468 24.6446 60.2937 27.9902 61.6796C31.3359 63.0656 35.0174 63.4283 38.5693 62.722C42.1211 62.0157 45.3837 60.272 47.9446 57.7114C50.5055 55.1509 52.2495 51.8884 52.9563 48.3367C53.6631 44.7849 53.3008 41.1034 51.9152 37.7575C50.5297 34.4117 48.1831 31.5518 45.1723 29.5396C42.1614 27.5273 38.6215 26.453 35.0001 26.4526C30.1453 26.4581 25.4909 28.3889 22.0578 31.8215C18.6248 35.2542 16.6934 39.9084 16.6874 44.7631ZM57.5408 0.736816H56.0509V8.46113H57.5408V0.736816ZM43.014 0.736816H41.5182V8.46113H43.014V0.736816ZM28.482 0.736816H26.9862V8.46113H28.482V0.736816ZM59.8317 6.49597V9.60324C59.8318 9.75343 59.8022 9.90217 59.7447 10.0409C59.6872 10.1797 59.6029 10.3057 59.4966 10.4118C59.3903 10.5179 59.2641 10.602 59.1252 10.6592C58.9863 10.7165 58.8376 10.7457 58.6874 10.7453H54.9066C54.6037 10.745 54.3133 10.6245 54.0989 10.4105C53.8846 10.1964 53.7638 9.90616 53.763 9.60324V5.74071H45.296V9.60324C45.2961 9.75337 45.2666 9.90205 45.2091 10.0408C45.1517 10.1795 45.0674 10.3055 44.9612 10.4116C44.8549 10.5177 44.7288 10.6018 44.59 10.659C44.4513 10.7163 44.3025 10.7456 44.1524 10.7453H40.3746C40.0716 10.7451 39.7811 10.6248 39.5667 10.4107C39.3523 10.1966 39.2316 9.90622 39.231 9.60324V5.74071H30.764V9.60324C30.7641 9.75337 30.7346 9.90205 30.6771 10.0408C30.6197 10.1795 30.5354 10.3055 30.4292 10.4116C30.3229 10.5177 30.1968 10.6018 30.058 10.659C29.9193 10.7163 29.7705 10.7456 29.6204 10.7453H25.8426C25.5396 10.7451 25.249 10.6248 25.0345 10.4107C24.82 10.1967 24.6991 9.90629 24.6983 9.60324V5.74071H16.232V9.60324C16.2324 9.90562 16.1127 10.1958 15.8992 10.41C15.6857 10.6241 15.396 10.7448 15.0936 10.7453H11.3099C11.0075 10.7448 10.7177 10.6241 10.5042 10.41C10.2908 10.1958 10.1711 9.90562 10.1715 9.60324V6.49597C8.12725 7.29311 6.37171 8.68952 5.13515 10.502C3.89859 12.3145 3.23875 14.4585 3.2422 16.6526V17.9789H66.758V16.6526C66.7617 14.4588 66.1023 12.3151 64.8663 10.5027C63.6302 8.69019 61.8753 7.29358 59.8317 6.49597ZM18.9745 44.7631C18.9747 41.5936 19.9147 38.4953 21.6757 35.86C23.4367 33.2247 25.9396 31.1708 28.8679 29.958C31.7962 28.7451 35.0184 28.4279 38.127 29.0463C41.2356 29.6647 44.091 31.1911 46.3321 33.4323C48.5733 35.6736 50.0995 38.5291 50.7178 41.6377C51.3361 44.7463 51.0187 47.9685 49.8057 50.8968C48.5928 53.825 46.5387 56.3278 43.9034 58.0887C41.268 59.8496 38.1696 60.7894 35.0001 60.7894C30.7511 60.785 26.6774 59.095 23.673 56.0905C20.6686 53.0859 18.9788 49.0121 18.9745 44.7631ZM24.9584 47.5631C24.9584 47.7132 24.988 47.8619 25.0455 48.0005C25.103 48.1392 25.1872 48.2652 25.2934 48.3712C25.3997 48.4773 25.5257 48.5614 25.6645 48.6187C25.8032 48.676 25.9519 48.7054 26.102 48.7052H31.0624V53.6627C31.0621 53.8124 31.0913 53.9607 31.1483 54.0991C31.2053 54.2375 31.2891 54.3633 31.3947 54.4694C31.5004 54.5754 31.6259 54.6596 31.764 54.7172C31.9022 54.7748 32.0504 54.8045 32.2001 54.8048H37.7942C37.9443 54.8051 38.093 54.7758 38.2318 54.7185C38.3706 54.6612 38.4967 54.5771 38.603 54.471C38.7092 54.3649 38.7934 54.2389 38.8509 54.1002C38.9083 53.9615 38.9379 53.8128 38.9378 53.6627V48.7052H43.8975C44.1998 48.7047 44.4896 48.584 44.7031 48.3699C44.9166 48.1557 45.0363 47.8655 45.0359 47.5631V41.9653C45.0366 41.8154 45.0076 41.6667 44.9507 41.528C44.8938 41.3892 44.8101 41.2631 44.7043 41.1568C44.5985 41.0504 44.4728 40.9661 44.3344 40.9084C44.1959 40.8508 44.0474 40.8211 43.8975 40.821H38.9378V35.8665C38.9379 35.7164 38.9083 35.5677 38.8509 35.429C38.7934 35.2903 38.7092 35.1643 38.603 35.0582C38.4967 34.9521 38.3706 34.868 38.2318 34.8107C38.093 34.7534 37.9443 34.7241 37.7942 34.7244H32.2001C32.0504 34.7247 31.9022 34.7545 31.764 34.812C31.6259 34.8696 31.5004 34.9538 31.3947 35.0598C31.2891 35.1659 31.2053 35.2917 31.1483 35.4301C31.0913 35.5685 31.0621 35.7168 31.0624 35.8665V40.821H26.102C25.9519 40.8206 25.8032 40.8499 25.6644 40.9071C25.5256 40.9643 25.3995 41.0483 25.2933 41.1543C25.187 41.2604 25.1028 41.3863 25.0453 41.525C24.9878 41.6637 24.9583 41.8123 24.9584 41.9624V47.5631ZM33.3444 47.5631V52.5206H36.6506V47.5609C36.652 47.2584 36.773 46.9687 36.9873 46.7551C37.2016 46.5415 37.4917 46.4214 37.7942 46.421H42.7539V43.1052H37.7942C37.4911 43.1048 37.2006 42.9843 36.9863 42.7701C36.7719 42.5559 36.6512 42.2654 36.6506 41.9624V37.0086H33.3444V41.9653C33.343 42.268 33.2219 42.5578 33.0075 42.7714C32.793 42.985 32.5028 43.105 32.2001 43.1052H27.2463V46.421H32.2001C32.5028 46.4212 32.793 46.5412 33.0075 46.7548C33.2219 46.9684 33.343 47.2583 33.3444 47.5609V47.5631Z" fill="#48A6F0"/>
</svg>
