<svg width="24" height="24" viewBox="0 0 24 24" fill="none" xmlns="http://www.w3.org/2000/svg">
<path d="M7.98878 4.50276L15.2968 11.9998L7.98878 19.4968C7.85795 19.6307 7.7847 19.8105 7.7847 19.9978C7.7847 20.185 7.85795 20.3648 7.98878 20.4988C8.05233 20.5636 8.12818 20.6151 8.21189 20.6503C8.2956 20.6855 8.38548 20.7036 8.47628 20.7036C8.56708 20.7036 8.65697 20.6855 8.74068 20.6503C8.82439 20.6151 8.90024 20.5636 8.96378 20.4988L16.7398 12.5233C16.8763 12.3832 16.9527 12.1954 16.9527 11.9998C16.9527 11.8042 16.8763 11.6163 16.7398 11.4763L8.96528 3.50076C8.90169 3.43545 8.82565 3.38353 8.74167 3.34809C8.65768 3.31264 8.56744 3.29438 8.47628 3.29438C8.38512 3.29438 8.29488 3.31264 8.2109 3.34809C8.12691 3.38353 8.05088 3.43545 7.98728 3.50076C7.85645 3.63471 7.7832 3.81452 7.7832 4.00176C7.7832 4.189 7.85645 4.36882 7.98728 4.50276H7.98878Z" fill="#666666"/>
</svg>
